<svg xmlns="http://www.w3.org/2000/svg" width="392" height="94" viewBox="0 0 392 94">
  <defs>
    <style>
      .cls-1 {
        fill: #fff;
        fill-rule: evenodd;
      }
    </style>
  </defs>
  <path id="Forma_1" data-name="Forma 1" class="cls-1" d="M154.678,62.367c-10.125-.59-12.8,12.867-15.949,20.252-0.971,2.28-1.5,6.4-3.544,7.595l-1.013.253a3.073,3.073,0,0,1-.506-1.519c-1.326-2.65,1.154-7.377,1.519-9.873h-0.253a10.557,10.557,0,0,1-4.3,2.278l-0.759-1.013c1.189-2.636,2.937-4.55,4.3-6.835,1.966-3.286,3.175-7.116,5.063-10.379,2.751-4.752,3.284-10.352,5.57-15.442,4.485-9.988,8.081-21.1,12.911-30.632C160.8,10.97,162.884,1.079,171.892,1.1q0.127,1.139.254,2.278c-2.406,4.41-2.6,9.315-5.063,13.67a386.954,386.954,0,0,0-21.012,42.277h0.253c3.97-2.584,13.566-3.68,18.48-2.278a6.828,6.828,0,0,1,.76,2.532l-4.557,5.063c-4.831,3.307-10.164,6.243-14.177,10.379l0.253,0.506c0.919,2.971,8.673,7.26,12.911,6.076a53.805,53.805,0,0,1,6.076-1.519,4.673,4.673,0,0,1,.506,2.532h-0.253c-1.443,3.944-10.135,7.627-15.7,5.569-3.916-1.449-7.953-8.274-7.847-14.177C145.662,71.852,154.331,66.314,154.678,62.367Zm96.2-46.581c25.6-.1,20.8,40.35-6.582,33.67-9.646-2.353-16.642-15.9-9.367-26.075a19.632,19.632,0,0,1,10.633-7.088Zm-51.137.253c7.787-.207,15.8-0.364,20,3.038,5.813,4.716,1.525,12.2-3.291,14.43v0.506c2.669,2.051,4.5,5.691,6.582,8.354,0.64,0.819,3.144,1.258,3.544,2.025v3.544l-0.253.253H215.182c-3.564-1.618-5.581-9.773-9.114-10.886v1.013l0.507,5.316h0.506l3.038,0.759q0.126,1.9.253,3.8l-8.86.253-9.62.253q-0.127-1.266-.253-2.532c-0.372-.481.268-1.128,0.759-1.519l3.038-1.013V21.356a4.668,4.668,0,0,0-2.532-.506l-1.265-.253a8.3,8.3,0,0,1-.507-3.8l0.253-.253Zm77.718,0,5.57,0.253c2.441,1.052,4.491,4.554,6.075,6.582,3.556,4.552,9.051,8.307,11.9,13.417h0.506v-8.86q-0.126-2.531-.253-5.063c-1.048-.609-2.935-0.839-4.051-1.519q-0.126-1.772-.253-3.544c2.828-1.394,9.363-.548,13.164-0.506q0.127,0.38.253,0.759,0.127,1.519.254,3.038a10.869,10.869,0,0,1-3.545,1.013c-0.9,2.7-1.074,18.992-.506,20.505,1.55,3.4,3.877.574,3.8,6.329l-11.9.253-0.506-.253L285.053,33.254h-0.506V34.52c1.038,2.333-1.191,7.427.759,9.367,1.015,0.577,2.915.22,3.544,1.266q0.127,1.519.253,3.038c-1.342.678-3.979,0.549-6.075,0.506h-6.836V48.19q-0.126-1.519-.253-3.038c0.823-.481,2.374-0.72,3.291-1.266,1.017-1.8,1.064-19.743,0-22.531-2.4-.78-2.467-1.787-2.278-5.063Zm97.718,0.506c2.389,1.521,2.722,5.244,4.051,7.848,2.865,5.617,5.346,14.973,9.113,19.746,0.7,0.883,2.143.509,2.785,1.519v3.291l-4.81.253H373.657V48.7q-0.126-1.645-.253-3.291a6.707,6.707,0,0,1,3.8-.759c-0.562-5.175-4.436-4.036-9.873-3.8-0.578.921-1.554,2.577-1.265,3.544,2.832,1.238,3.763.183,3.544,4.557l-0.76.253H357.455q-0.126-1.9-.253-3.8c8.165-4.387,8.5-18.724,13.924-26.075Zm-55.694.253c15.923-.224,26.707-1.413,32.151,9.367,1.123,2.225,2.631,6.01,1.772,10.126-3.136,15.019-16.8,13.2-33.67,13.417a9.108,9.108,0,0,1-.506-4.05c1.157-.5,2.932-0.357,3.544-1.519V21.862l-0.253-.253c-0.955-.095-2.783-0.38-3.291-1.013A3.975,3.975,0,0,1,319.482,16.8Zm-112.4,3.8-0.759.506q-0.127,1.013-.254,2.025,0.127,3.037.254,6.076c0.438,0.837.319,0.678,1.519,0.76,1.326-.667,2.4-0.365,3.037-1.772,0.788-1.122.714-4.4,0-5.569C210.241,21,208.991,20.912,207.081,20.6Zm41.771,0.253c-1.5,1.186-3.169,1.745-4.051,3.544-3.225,6.581-1.778,20.691,5.823,20.759,1.709-.914,3.275-1.26,4.3-2.785C259.067,36.227,257.826,20.644,248.852,20.849Zm85.566,1.266a3.4,3.4,0,0,0-.506,2.278q-0.126,10.125-.253,20.252L336.95,44.9c1.106-.721,2.522-0.979,3.291-2.025C345.211,36.108,342.42,22.582,334.418,22.115Zm37.467,7.342q-0.885,3.164-1.772,6.329h4.051l0.506-.506a13.308,13.308,0,0,1-2.025-5.823h-0.76ZM86.073,39.583V40.6H85.06v0.253C86.278,43.857,80.811,51.083,79.491,53A159.664,159.664,0,0,1,58.985,77.3c-2.482,2.389-4.922,6.59-9.367,6.835-2.686-4.227-2.544-11.9-3.544-16.961l-1.013-.506c-4.828,3.715-13.378,16.456-18.734,17.468-2.989-4.368-4.461-9.575-5.823-15.189C19.648,65.414,19.224,58.76,17.468,56.8,12.2,53.422,5.3,64.512.506,65.4L0,65.151V63.379c1.256-1.08,1.535-2.671,2.532-4.05,2.964-4.1,10.734-10.646,15.442-12.911,1.895-.911,4.235-0.273,6.076,0a29.445,29.445,0,0,1,5.316,11.9c0.884,4.306-.35,9.453,1.519,12.658a2.447,2.447,0,0,0,1.772.506c4.815-4.377,8.526-10.145,12.911-14.936,1.736-1.9,3.715-4.6,7.088-4.05,0.422,1.131.863,1.242,1.013,2.785,1.183,2.5.286,13.659,1.013,16.961h0.759c2.718-3.719,6.466-7.018,8.861-11.139C68.814,53.335,75.086,38.74,86.073,39.583Zm37.467,5.823c3.689-.028,6.972.307,10.126,0.506,1.045,1.215,2.978,1.893,3.544,3.544,4.476,13.056-8.679,27.383-17.214,30.632-3.6,1.372-7.639,1.63-10.886,2.532h-5.316c-8.63,0-13.781-1.084-18.987-4.557-2.306-1.538-5.256-2.043-5.316-5.823-3.4-.328-5.7-1.87-5.569-5.823,2.5-2.333,3.458-5.261,8.354-5.316V61.86a4.411,4.411,0,0,0-1.013,3.8c5.666,0.985,13.761,2.09,21.265.253,3.972-.972,11.122-3.417,14.936-3.544a3.248,3.248,0,0,1,.506,1.772q-0.126.253-.253,0.506l-7.088,4.05c-3.883,1.823-8.218,2.448-12.658,3.544-1.9.468-12.355,0.335-12.911,0.76H84.807l0.506,0.253c2.155,1.661,6.044,1.319,8.861,2.278,16.147,5.5,25.946-2.809,31.9-12.658,1.645-2.721,3.947-6.03,4.051-10.126-0.827-.823-1.649-1.494-2.532-2.278-8.942-.37-15.315.86-23.29,2.785-3.124.754-6.874,2.625-10.126,2.025V53.506L94.427,53c4.543-.553,11.194-3.848,15.949-5.316,2.584-.8,5.371-1.178,7.594-1.772Zm128.6,15.442a4.2,4.2,0,0,1,1.519,1.013c0.627,1.662.024,4.118,0.759,6.329,0.438,1.316,1.544,1.349,1.772,3.291-1.938.808-3.873,5.333-3.038,7.848,2.519,1.7,6.76.878,7.089,4.81a3.779,3.779,0,0,1-2.279,1.013,14.531,14.531,0,0,0-6.329-3.038,8.045,8.045,0,0,1-5.316,2.532L244.8,83.125q0.127-.38.253-0.76c1.853-1.266,4.271-3.532,4.3-6.582l-0.253-.253c-1.875.091-2.815-.119-3.038-1.772,6.141-3.28,3.754-4.54,5.063-12.152Zm121.261,0a7.415,7.415,0,0,1,6.582,7.088l-0.253.506c-1.043.436-2.847,0.924-3.291,2.025,0.692,0.711.686,1.938,1.013,3.038a4.937,4.937,0,0,1,3.037-.253,2.966,2.966,0,0,1,.76,1.772c-1.474,1.374-4.21,2.646-4.3,5.316v0.253c1.427,0.548,3.443-.142,5.063.506a4.365,4.365,0,0,1,.76,2.278c-1.067,1.023-2.871,2.2-3.291,3.8q0.126,0.886.253,1.772l-1.266,1.013c-1.65.079-4.239,0.625-5.569-.253a3.042,3.042,0,0,1-.76-1.772c1.228-1.417,3.763-2.906,4.3-4.81h-0.506c-0.93.565-2.489,0.546-4.051,0.506a50.265,50.265,0,0,0,2.025-12.658l-1.012-.253c-2.684,3.9-8.746,16.927-13.671,17.215a3.249,3.249,0,0,1-.506-1.772c3.609-3.061,9.285-8.422,10.379-13.67-1.146-.849-1.509-3.907-0.506-5.316l1.013-.253c1.154,1.334,3.983-.026,5.822-0.506,0.085-.253.169-0.506,0.254-0.759-1.552-.9-2.952-1.89-3.038-4.3ZM206.828,61.1l1.772,0.253a5.81,5.81,0,0,1,1.519,4.3,2.846,2.846,0,0,0-1.772,2.025h0.506a4.928,4.928,0,0,1,2.785-1.772c0.8,1.087,1.88,1.526,2.278,3.038-1.907,1.273-8.3,5.757-8.86,7.848,0.884,0.852,1.059,2.543,2.025,3.291V79.834c1.577-1.667,2.814-4.664,5.316-5.316,0.858,0.829,1.2.777,1.266,2.532-1.632,1.927-5.839,7.852-6.076,10.632l0.254,0.253c3.1,0.343,7.206.152,8.354-2.785,1.309-1.84.363-4.04,0.253-6.582a2.97,2.97,0,0,1,1.772-.76c1.667,3.041,2.037,7.153,2.025,11.9-2.189,1.869-7.607,4.386-12.658,3.038-1.63-.435-2.095-1.871-3.8-2.278a4.162,4.162,0,0,1-2.532.506c-0.625-.856-1.2-1.046-1.518-2.278,1.89-1.315,4.062-3.341,4.05-6.582V81.1l-0.253.253c-1.868,2.807-4.9,10.821-8.1,11.645l-0.76-.506c-0.206-4.263,3.552-7.586,5.317-11.645,0.444-1.021,2.086-3.2,1.519-4.3-1.008-.94-1.986-1.332-2.532-2.785h0.253c1.074-2.393,4.05-2.007,5.57-3.8C207.285,67.038,205.6,63.69,206.828,61.1Zm136.2,26.835c0.259-2.363,1.711-4.142,2.279-6.329,1.15-4.426-1.032-8.657-1.772-11.9a4.176,4.176,0,0,0-2.785-1.013,1.36,1.36,0,0,0-.759,1.266c1.055,1.624.316,4.926,0.253,7.342h1.772v0.506q0.126,0.759.253,1.519c-1.091.815-1.347,1.75-3.038,2.025-0.921-.8-5.27.474-6.582,1.266l-0.759,6.076-0.76.253h-1.266V88.442c-3.289-5.739,3.391-18.143,4.81-22.784l-0.253-.253a68.089,68.089,0,0,0-6.582,4.557l-0.253-.506c3.443-3.07,5.015-7.609,10.886-8.354a3.764,3.764,0,0,1,.759,2.025c-0.517.573-2.336,3.482-2.025,3.8,1.742,0.44,6-1.684,8.607-.253a2.331,2.331,0,0,1,1.772,2.532v5.316C348.359,78.958,348.923,87.981,343.025,87.935ZM291.888,61.354h0.76l2.784,3.8a43.408,43.408,0,0,0-1.772,7.595h0.507c1.457-1.19,4.063-1.342,6.328-1.013l1.772,2.025q-0.126.253-.253,0.506c-1.094,2.567-6.211,3.878-9.62,4.05-1.816,3.5-7.389,14.862-12.151,13.417a3.807,3.807,0,0,1-1.772-3.038c2.888-2.828,8.348-5.4,9.113-10.126-2.689-.239-4.74-0.938-5.569-3.038,1.832-.905,5.522-0.786,7.342-2.025,1.839-1.252.081-9.208-.254-10.886l0.76-.253Zm31.138,2.025a5.909,5.909,0,0,1,2.532,1.013q0.126,1.139.253,2.278c-0.738.6-.5,0.8-1.772,1.013a6.952,6.952,0,0,1-1.519-3.544Zm-107.844.76h0.76a6.707,6.707,0,0,1,1.518,4.3,3.292,3.292,0,0,1-2.025,1.013c-0.911-1-1.251-2.082-1.266-4.05Zm122.274,6.329a2.945,2.945,0,0,0-.506.759c-0.9,1.7-.309,4.2-0.253,6.582h0.759l0.253-.253a32.138,32.138,0,0,0,.507-7.088h-0.76ZM326.824,72.24l0.759,0.253q0.126,5.063.253,10.126c-1.032,2.171-.211,7.257-0.759,9.367l-1.772,1.266L322.52,93c-1.93-3.246-2.333-14.577-1.266-20h1.013c0.084,0.253.169,0.506,0.253,0.76q0.887,4.177,1.772,8.354H324.8v-3.8C324.154,76.674,326.1,73.622,326.824,72.24Zm7.341,1.519a45.836,45.836,0,0,0-1.519,6.835h0.76c0.8-.827,1.969-0.93,2.531-2.025-0.792-1.088-.969-3.313-1.266-4.81h-0.506ZM236.7,74.771h0.76c0.626,0.865,1.048.889,1.265,2.278q-0.252.506-.506,1.013a2.439,2.439,0,0,1-1.519.76c-0.084-.253-0.169-0.506-0.253-0.76A3.859,3.859,0,0,1,236.7,74.771Zm62.783,4.81c4.727,1.344,9.991,6.76,8.607,13.417h-0.759c-2.994-3.947-8.072-6.4-11.392-10.126,0.464-1.787,1.356-2.04,2.531-3.038Zm-59.239.76c3.447,1.444,4.584,5.865,8.355,7.341,3.689,1.445,16.333-3.447,16.708,2.025-1.827.928-12.251,4.041-14.936,3.291l-5.823-3.038c-1.8-.582-5.068.611-6.329,0.253a4.334,4.334,0,0,1-1.772-2.025q0.126-.759.253-1.519c1.247-.823,3.993-1.361,4.557-2.532A3.572,3.572,0,0,1,240.244,80.341ZM369.86,81.86c1.5,1.221,1.792,4.956,1.772,7.595a2.982,2.982,0,0,1-2.025.76L369.1,89.2c-0.888-1.361-.643-4.761-0.506-6.329Zm-31.138,2.532,1.519,0.253c0.6,2.013,1.593,2.756,2.025,4.05l-1.013.76a27.7,27.7,0,0,1-7.341-1.013,2.978,2.978,0,0,1-.76-1.772C334.942,85.834,337.3,85.6,338.722,84.391Z"/>
</svg>
